<?xml version="1.0" encoding="iso-8859-1"?>
<!-- Generator: Adobe Illustrator 19.0.0, SVG Export Plug-In . SVG Version: 6.00 Build 0)  -->
<svg version="1.1" id="Capa_1" xmlns="http://www.w3.org/2000/svg" xmlns:xlink="http://www.w3.org/1999/xlink" x="0px" y="0px"
	 viewBox="0 0 512 512" style="enable-background:new 0 0 512 512;" xml:space="preserve">
<g>
	<g>
		<path d="M512,218.515c0.005-5.687-3.206-10.886-8.292-13.429l-48.267-24.133l48.245-24.022c5.094-2.54,8.314-7.74,8.314-13.431
			c0-5.69-3.22-10.891-8.314-13.428l-241-120c-4.211-2.097-9.161-2.097-13.372,0l-241,120C3.22,132.609,0,137.81,0,143.5
			s3.22,10.891,8.314,13.428l48.245,24.022L8.292,205.084c-5.086,2.543-8.297,7.743-8.292,13.429
			c0.005,5.686,3.224,10.88,8.314,13.415l48.245,24.022L8.292,280.084c-5.086,2.543-8.297,7.743-8.292,13.429
			s3.224,10.88,8.314,13.415l48.245,24.022L8.292,355.084c-5.086,2.543-8.297,7.743-8.292,13.429s3.224,10.88,8.314,13.415l241,120
			c2.105,1.048,4.396,1.572,6.686,1.572c2.29,0,4.581-0.524,6.686-1.572l241-120c5.09-2.535,8.309-7.729,8.314-13.415
			c0.005-5.687-3.206-10.886-8.292-13.429l-48.267-24.133l48.245-24.022c5.09-2.535,8.309-7.729,8.314-13.415
			c0.005-5.687-3.206-10.886-8.292-13.429l-48.267-24.133l48.245-24.022C508.776,229.395,511.995,224.201,512,218.515z
			 M48.653,143.5L256,40.256L463.347,143.5L256,246.744L48.653,143.5z M463.403,368.472L256,471.744L48.597,368.472l41.573-20.787
			l159.144,79.242c2.105,1.048,4.396,1.572,6.686,1.572c2.29,0,4.581-0.524,6.686-1.572l159.144-79.242L463.403,368.472z
			 M463.403,293.472L256,396.744L48.597,293.472l41.573-20.787l159.144,79.242c2.105,1.048,4.396,1.572,6.686,1.572
			c2.29,0,4.581-0.524,6.686-1.572l159.144-79.242L463.403,293.472z M256,321.744L48.597,218.472l41.573-20.787l159.144,79.242
			c2.105,1.048,4.396,1.572,6.686,1.572c2.29,0,4.581-0.524,6.686-1.572l159.144-79.242l41.573,20.787L256,321.744z"/>
	</g>
</g>
<g>
</g>
<g>
</g>
<g>
</g>
<g>
</g>
<g>
</g>
<g>
</g>
<g>
</g>
<g>
</g>
<g>
</g>
<g>
</g>
<g>
</g>
<g>
</g>
<g>
</g>
<g>
</g>
<g>
</g>
</svg>
