<?xml version="1.0" encoding="UTF-8"?>
<!DOCTYPE svg PUBLIC "-//W3C//DTD SVG 1.1//EN" "http://www.w3.org/Graphics/SVG/1.1/DTD/svg11.dtd">
<!-- Creator: CorelDRAW X8 -->
<svg xmlns="http://www.w3.org/2000/svg" xml:space="preserve" width="225.9mm" height="223.947mm" version="1.1" style="shape-rendering:geometricPrecision; text-rendering:geometricPrecision; image-rendering:optimizeQuality; fill-rule:evenodd; clip-rule:evenodd"
viewBox="0 0 22770 22574"
 xmlns:xlink="http://www.w3.org/1999/xlink">
 <defs>
  <style type="text/css">
   <![CDATA[
    .fil1 {fill:#33CC99}
    .fil0 {fill:white}
   ]]>
  </style>
 </defs>
 <g id="Layer_x0020_1">
  <metadata id="CorelCorpID_0Corel-Layer"/>
  <g id="_696621664">
   <path class="fil0" d="M21229 20860c-423,719 -1108,1250 -1913,1472 -602,166 -1224,242 -1847,242 -4215,-5 -8416,-3431 -11224,-6239 -3098,-3097 -7315,-8291 -5997,-13070 222,-805 755,-1485 1469,-1913l1792 -1076c889,-533 2052,-271 2627,591l2857 4283c567,850 381,1997 -426,2624l-1492 1160 63 116c260,475 517,906 839,1344 585,794 1282,1537 1978,2234 697,696 1439,1393 2234,1977 439,322 871,579 1346,841l111 61 1161 -1494c627,-806 1773,-993 2623,-426l4285 2858c863,575 1125,1739 590,2628l-1076 1787z"/>
   <path class="fil1" d="M21092 18347l-1074 1791c-238,408 -623,706 -1077,835 -2169,596 -5961,102 -11698,-5636 -5737,-5737 -6230,-9528 -5635,-11698 130,-454 429,-840 835,-1078l1792 -1074c247,-149 568,-77 728,163l1551 2331 1304 1954c156,236 104,551 -118,727l-1604 1247c-489,374 -628,1049 -328,1584l128 232c451,827 1011,1856 3058,3901 2046,2046 3074,2606 3900,3057l232 128c536,300 1212,161 1585,-327l1248 -1604c174,-222 490,-273 726,-118l4284 2857c240,160 313,481 163,728l0 0z"/>
   <path class="fil0" d="M13986 1984c-485,0 -879,-394 -879,-879 0,-485 394,-880 880,-879 4849,5 8778,3934 8783,8783 1,486 -393,880 -879,880 -485,0 -878,-394 -878,-879 -5,-3879 -3149,-7021 -7027,-7026z"/>
   <path class="fil0" d="M13618 5050c-485,-1 -880,-395 -880,-880 0,-485 395,-880 880,-879 3395,3 6146,2753 6150,6148 0,485 -394,880 -880,880 -485,0 -878,-394 -879,-879 -3,-2424 -1967,-4388 -4391,-4390z"/>
   <path class="fil0" d="M13249 8113c-485,0 -879,-393 -879,-878 0,-486 394,-880 880,-879 1940,1 3512,1573 3514,3513 1,485 -394,880 -879,880 -485,0 -879,-394 -880,-879 0,-970 -787,-1755 -1756,-1757z"/>
  </g>
 </g>
</svg>
